<svg width="32" height="32" viewBox="0 0 32 32" fill="none" xmlns="http://www.w3.org/2000/svg">
<path fill-rule="evenodd" clip-rule="evenodd" d="M12.4342 16.0592C12.4342 13.999 10.7641 12.3289 8.70398 12.3289C6.64381 12.3289 4.97372 13.999 4.97372 16.0592C4.97372 18.1194 6.64381 19.7895 8.70398 19.7895C10.7641 19.7895 12.4342 18.1194 12.4342 16.0592ZM14.329 16.0592C14.329 12.9526 11.8106 10.4342 8.70398 10.4342C5.59738 10.4342 3.07898 12.9526 3.07898 16.0592C3.07898 19.1658 5.59738 21.6842 8.70398 21.6842C11.8106 21.6842 14.329 19.1658 14.329 16.0592Z" fill="#FF7300"/>
<path fill-rule="evenodd" clip-rule="evenodd" d="M26.381 13.4215C26.1581 13.1986 25.9084 13.0054 25.638 12.846L25.638 19.2724C25.9084 19.113 26.1581 18.9198 26.381 18.6969C26.7274 18.3505 27.0021 17.9393 27.1896 17.4867C27.3771 17.0341 27.4735 16.5491 27.4735 16.0592C27.4735 15.5693 27.3771 15.0843 27.1896 14.6317C27.0021 14.1791 26.7274 13.7679 26.381 13.4215ZM25.638 21.3555C25.0306 21.5728 24.3897 21.6842 23.7433 21.6842L23.7433 10.4342C24.3897 10.4342 25.0306 10.5456 25.638 10.7629C25.7247 10.7939 25.8107 10.8271 25.8959 10.8624C26.5783 11.1451 27.1984 11.5594 27.7208 12.0817C28.2431 12.6041 28.6574 13.2242 28.9401 13.9066C29.2228 14.5891 29.3683 15.3205 29.3683 16.0592C29.3683 16.7979 29.2228 17.5293 28.9401 18.2118C28.6574 18.8943 28.2431 19.5144 27.7208 20.0367C27.1984 20.559 26.5783 20.9733 25.8959 21.256C25.8107 21.2913 25.7247 21.3245 25.638 21.3555Z" fill="#FF7300"/>
<path fill-rule="evenodd" clip-rule="evenodd" d="M15.3948 25L15.3948 7L17.2895 7L17.2895 23.3256H18.1185L18.1185 7L22.7369 7L22.7369 25L20.8421 25L20.8421 8.67442L20.0132 8.67442L20.0132 25L15.3948 25Z" fill="#FF7300"/>
</svg>
